Coordinates
version=1
nRows=36
nColumns=13
inDegrees=yes

Units are S.I. units (second, meters, Newtons, ...)
If the header above contains a line with 'inDegrees', this indicates whether rotational values are in degrees (yes) or radians (no).

endheader
time	bJoint_3	seatpos	hipangle	kneeangle	footangle	lbackangle	uarmleft_out	uarmleft_trn	uarmleft_up	uarmright_out	uarmright_trn	uarmright_up
      4.44000000	      0.00000001	     -0.00357582	     93.17515770	      5.56426810	      8.73942580	    -27.15419310	     45.55153541	    -33.30999933	     64.12612323	     44.82873967	    -29.65131467	     65.54242312
      4.45000000	      0.00000001	     -0.00358963	     93.15636686	      5.59922962	      8.75559648	    -28.25816926	     46.39079458	    -30.57108765	     64.27927440	     45.63394769	    -26.77311716	     65.81771086
      4.46000000	      0.00000001	     -0.00338886	     93.44237467	      5.06720232	      8.50957700	    -29.35437917	     47.33243358	    -27.94259699	     64.42254483	     46.55746830	    -24.11369328	     65.99971462
      4.47000000	      0.00000001	     -0.00332585	     93.53858248	      4.88829008	      8.42687256	    -30.52734564	     48.35382385	    -25.15095878	     64.45328930	     47.51314195	    -21.39966121	     65.94118042
      4.48000000	      0.00000001	     -0.00321093	     93.72379647	      4.54393205	      8.26772852	    -31.64205010	     49.17930786	    -22.51943973	     64.44777995	     48.47422278	    -18.51356953	     65.94654224
      4.49000000	      0.00000001	     -0.00308860	     93.93786068	      4.14605611	      8.08391679	    -32.75328345	     50.32103114	    -19.63975541	     64.51857948	     49.53108532	    -15.77898398	     65.80543899
      4.50000000	      0.00000001	     -0.00304396	     94.02129497	      3.99101426	      8.01230923	    -33.88341186	     51.60851074	    -17.11981501	     64.37091112	     50.90644072	    -12.93634950	     65.83730715
      4.51000000	      0.00000001	     -0.00298517	     94.13639656	      3.77715933	      7.91355589	    -35.01000059	     53.03176800	    -14.26850048	     64.40788778	     52.33356643	    -10.11669295	     65.76214514
      4.52000000	      0.00000001	     -0.00294338	     94.22237886	      3.61743185	      7.83981072	    -36.12106611	     54.54914936	    -11.58658114	     64.01502850	     53.95635565	     -7.22853171	     65.43295974
      4.53000000	      0.00000002	     -0.00288849	     94.34144970	      3.39627160	      7.73772130	    -37.22789591	     56.74252154	     -9.11636984	     63.94393216	     56.28516675	     -4.63681070	     65.24563868
      4.54000000	      0.00000002	     -0.00286869	     94.38636876	      3.31285025	      7.69921901	    -38.36734462	     58.38328806	     -6.42082528	     63.31409287	     58.01783919	     -1.50658560	     64.68617514
      4.55000000	      0.00000002	     -0.00280632	     94.53588781	      3.03521314	      7.57110095	    -39.46253321	     60.36653576	     -3.71608292	     62.91652128	     59.99232415	      1.36178934	     64.01278624
      4.56000000	      0.00000002	     -0.00280821	     94.53117752	      3.04395855	      7.57513607	    -40.23899376	     63.33867208	     -1.51575804	     62.05544404	     62.58197890	      4.23300940	     63.27395801
      4.57000000	      0.00000002	     -0.00275815	     94.66151756	      2.80198522	      7.46350278	    -40.19899547	     66.09431742	      0.46514231	     61.09898851	     65.21950418	      6.82745385	     62.04568496
      4.58000000	      0.00000003	     -0.00272121	     94.76543908	      2.60909253	      7.37453160	    -40.12664330	     68.13487925	      3.32892229	     60.06635227	     66.89141292	     10.41817462	     61.06518594
      4.59000000	      0.00000005	     -0.00260031	     95.17917844	      1.84144628	      7.02062473	    -39.52920306	     73.55380659	     11.93608859	     59.67564570	     74.04140424	     20.13666481	     60.50105851
      4.60000000	      0.00000006	     -0.00256650	     95.33061961	      1.56058934	      6.89120895	    -38.32415970	     80.11072241	     18.30156929	     59.79694448	     81.12398888	     29.19053211	     62.62032281
      4.61000000	      0.00000006	     -0.00256736	     95.32639898	      1.56841585	      6.89481483	    -38.75214305	     79.52157800	     14.72533563	     60.18455109	     79.82369499	     24.71010881	     62.00331776
      4.62000000	      0.00000006	     -0.00256988	     95.31428220	      1.59088484	      6.90516704	    -39.09252957	     79.80651351	     11.22472674	     60.52719260	     79.63184123	     20.26120469	     61.71459516
      4.63000000	      0.00000006	     -0.00257386	     95.29540607	      1.62588903	      6.92129509	    -39.37640749	     77.61757168	      9.20115268	     61.46039565	     77.60665159	     17.29954063	     62.39672397
      4.64000000	      0.00000006	     -0.00257845	     95.27414218	      1.66532231	      6.93946449	    -39.59319611	     76.38609307	      7.11450154	     62.21179806	     76.61372436	     14.31271049	     62.74926257
      4.65000000	      0.00000005	     -0.00258582	     95.24107566	      1.72664599	      6.96772165	    -39.76403989	     75.06899069	      5.47111497	     62.95976921	     75.19313695	     12.01521031	     63.57732321
      4.66000000	      0.00000005	     -0.00259214	     95.21356211	      1.77767378	      6.99123589	    -39.89553757	     73.93410677	      3.71371216	     63.73310873	     74.24284275	      9.82556173	     64.38747074
      4.67000000	      0.00000005	     -0.00260026	     95.17937782	      1.84107648	      7.02045430	    -40.00576527	     74.38793410	      1.50029676	     64.43583262	     74.55438080	      7.19188104	     64.67505744
      4.68000000	      0.00000004	     -0.00260890	     95.14427809	      1.90618064	      7.05045873	    -40.08740632	     74.61575385	     -0.48341255	     65.19797599	     74.85833959	      4.81908990	     65.47120804
      4.69000000	      0.00000004	     -0.00261925	     95.10370716	      1.98143745	      7.08514461	    -40.15235881	     75.11805354	     -2.59361970	     65.90070155	     75.63313024	      2.66346744	     66.10193007
      4.70000000	      0.00000004	     -0.00262943	     95.06528155	      2.05271925	      7.11800080	    -40.21063422	     74.84410444	     -4.08516931	     66.60215814	     75.41332737	      0.65478448	     66.89113280
      4.71000000	      0.00000004	     -0.00264337	     95.01469726	      2.14656267	      7.16125993	    -40.25151753	     74.23653707	     -5.37754427	     67.27145162	     74.80268291	     -0.81235263	     67.48582778
      4.72000000	      0.00000003	     -0.00265382	     94.97821861	      2.21424210	      7.19246071	    -40.28447063	     74.01213041	     -6.85593290	     68.16184426	     74.73175749	     -2.39581653	     68.19804728
      4.73000000	      0.00000003	     -0.00267054	     94.92203885	      2.31848090	      7.24051974	    -40.30327617	     74.02013569	     -8.11178721	     68.89459354	     74.77385101	     -3.85642533	     69.02097997
      4.74000000	      0.00000003	     -0.00268430	     94.87762131	      2.40090196	      7.27852327	    -40.32545204	     73.14542786	     -9.13991195	     69.39823673	     73.81869687	     -5.02032825	     69.66045789
      4.75000000	      0.00000003	     -0.00269877	     94.83254304	      2.48455494	      7.31709798	    -40.34378850	     73.10674576	    -10.52723063	     70.22131846	     73.87064072	     -6.59032902	     70.57493994
      4.76000000	      0.00000003	     -0.00271851	     94.77335496	      2.59440083	      7.36775579	    -40.35091193	     73.22852678	    -11.86295357	     70.88517075	     74.14193680	     -7.91806822	     71.33941665
      4.77000000	      0.00000002	     -0.00273690	     94.72039787	      2.69269138	      7.41308926	    -40.35778131	     73.64277041	    -13.15522816	     71.83671136	     74.76411171	     -9.32185411	     72.17064181
      4.78000000	      0.00000002	     -0.00275613	     94.66702459	      2.79176263	      7.45878722	    -40.36338789	     74.48762963	    -14.48361725	     72.71478010	     75.65060070	    -10.88028597	     73.00192439
      4.79000000	      0.00000002	     -0.00277186	     94.62470745	      2.87031738	      7.49502483	    -40.36760989	     74.42415699	    -15.50856029	     73.38247672	     75.58080443	    -11.99201795	     73.89332684
